<mxfile host="app.diagrams.net" modified="2020-12-07T10:27:18.554Z" agent="5.0 (Macintosh; Intel Mac OS X 10_15_3) AppleWebKit/537.36 (KHTML, like Gecko) Chrome/80.0.3987.149 Safari/537.36" etag="9toIeHMV_FlJ3qEl4YQr" version="13.10.0" type="github">
  <diagram id="_u9lYxrAKoSK7hpjoyEK" name="第 1 页">
    <mxGraphModel dx="2893" dy="1153" grid="1" gridSize="10" guides="1" tooltips="1" connect="1" arrows="1" fold="1" page="1" pageScale="1" pageWidth="827" pageHeight="1169" math="0" shadow="0">
      <root>
        <mxCell id="0" />
        <mxCell id="1" parent="0" />
        <mxCell id="t9Xe124qffeVRsU6kOnB-11" style="edgeStyle=orthogonalEdgeStyle;rounded=0;orthogonalLoop=1;jettySize=auto;html=1;exitX=1;exitY=0.5;exitDx=0;exitDy=0;entryX=0;entryY=0.5;entryDx=0;entryDy=0;" edge="1" parent="1" source="t9Xe124qffeVRsU6kOnB-3" target="t9Xe124qffeVRsU6kOnB-7">
          <mxGeometry relative="1" as="geometry" />
        </mxCell>
        <mxCell id="t9Xe124qffeVRsU6kOnB-3" value="&lt;font style=&quot;font-size: 31px&quot;&gt;Sr queue&lt;br&gt;&lt;/font&gt;" style="rounded=0;whiteSpace=wrap;html=1;" vertex="1" parent="1">
          <mxGeometry x="-180" y="534.5" width="230" height="85.5" as="geometry" />
        </mxCell>
        <mxCell id="t9Xe124qffeVRsU6kOnB-10" style="edgeStyle=orthogonalEdgeStyle;rounded=0;orthogonalLoop=1;jettySize=auto;html=1;exitX=1;exitY=0.5;exitDx=0;exitDy=0;entryX=0;entryY=0.5;entryDx=0;entryDy=0;" edge="1" parent="1" source="t9Xe124qffeVRsU6kOnB-5" target="t9Xe124qffeVRsU6kOnB-3">
          <mxGeometry relative="1" as="geometry" />
        </mxCell>
        <mxCell id="t9Xe124qffeVRsU6kOnB-5" value="&lt;font style=&quot;font-size: 31px&quot;&gt;Decode node&lt;/font&gt;" style="ellipse;whiteSpace=wrap;html=1;" vertex="1" parent="1">
          <mxGeometry x="-460" y="523.25" width="180" height="108" as="geometry" />
        </mxCell>
        <mxCell id="t9Xe124qffeVRsU6kOnB-6" value="" style="rounded=0;whiteSpace=wrap;html=1;" vertex="1" parent="1">
          <mxGeometry x="1100" y="60" width="120" height="60" as="geometry" />
        </mxCell>
        <mxCell id="t9Xe124qffeVRsU6kOnB-12" style="edgeStyle=orthogonalEdgeStyle;rounded=0;orthogonalLoop=1;jettySize=auto;html=1;exitX=1;exitY=0.5;exitDx=0;exitDy=0;" edge="1" parent="1" source="t9Xe124qffeVRsU6kOnB-7" target="t9Xe124qffeVRsU6kOnB-8">
          <mxGeometry relative="1" as="geometry" />
        </mxCell>
        <mxCell id="t9Xe124qffeVRsU6kOnB-7" value="&lt;font style=&quot;font-size: 31px&quot;&gt;Sr node&lt;/font&gt;" style="ellipse;whiteSpace=wrap;html=1;" vertex="1" parent="1">
          <mxGeometry x="150" y="524" width="170" height="107" as="geometry" />
        </mxCell>
        <mxCell id="t9Xe124qffeVRsU6kOnB-13" style="edgeStyle=orthogonalEdgeStyle;rounded=0;orthogonalLoop=1;jettySize=auto;html=1;exitX=1;exitY=0.5;exitDx=0;exitDy=0;" edge="1" parent="1" source="t9Xe124qffeVRsU6kOnB-8" target="t9Xe124qffeVRsU6kOnB-9">
          <mxGeometry relative="1" as="geometry" />
        </mxCell>
        <mxCell id="t9Xe124qffeVRsU6kOnB-8" value="&lt;font style=&quot;font-size: 31px&quot;&gt;Output&lt;br&gt;&lt;/font&gt;" style="rounded=0;whiteSpace=wrap;html=1;" vertex="1" parent="1">
          <mxGeometry x="440" y="534.75" width="180" height="85.5" as="geometry" />
        </mxCell>
        <mxCell id="t9Xe124qffeVRsU6kOnB-9" value="&lt;font style=&quot;font-size: 31px&quot;&gt;Render node&lt;/font&gt;" style="ellipse;whiteSpace=wrap;html=1;" vertex="1" parent="1">
          <mxGeometry x="730" y="524.25" width="170" height="107" as="geometry" />
        </mxCell>
      </root>
    </mxGraphModel>
  </diagram>
</mxfile>
